<?xml version="1.0" encoding="utf-8"?>
<!-- Generator: Adobe Illustrator 15.0.0, SVG Export Plug-In  -->
<!DOCTYPE svg PUBLIC "-//W3C//DTD SVG 1.1//EN" "http://www.w3.org/Graphics/SVG/1.1/DTD/svg11.dtd" [
	<!ENTITY ns_flows "http://ns.adobe.com/Flows/1.0/">
]>
<svg version="1.1"
	 xmlns="http://www.w3.org/2000/svg" xmlns:xlink="http://www.w3.org/1999/xlink" xmlns:a="http://ns.adobe.com/AdobeSVGViewerExtensions/3.0/"
	 x="0px" y="0px" width="225px" height="58px" viewBox="0.002 -0.43 225 58" enable-background="new 0.002 -0.43 225 58"
	 xml:space="preserve">
<defs>
</defs>
<path fill="#FFFFFF" d="M61.142,48.65c-0.52,0.52-1.32,0.85-2.09,0.85c-2.08,0-2.83-1.459-2.84-2.83c-0.01-0.83,0.28-1.6,0.79-2.119
	c0.51-0.51,1.21-0.791,2.05-0.791c0.78,0,1.49,0.281,2,0.791l0.11,0.109l1.31-1.29l-0.11-0.11c-0.91-0.91-2.06-1.39-3.31-1.39
	c-1.39,0-2.58,0.46-3.43,1.33c-0.86,0.87-1.34,2.13-1.34,3.47c0.01,2.17,1.27,4.69,4.77,4.69c1.35,0,2.54-0.46,3.42-1.351
	l0.11-0.109l-1.33-1.359L61.142,48.65L61.142,48.65z"/>
<path fill="#FFFFFF" d="M75.822,46.679c-0.02,1.381-0.74,2.861-2.7,2.861c-1.95,0-2.68-1.471-2.71-2.851
	c-0.02-0.88,0.27-1.7,0.8-2.25c0.48-0.5,1.12-0.75,1.91-0.75c0.78,0,1.42,0.25,1.89,0.729C75.542,44.97,75.842,45.791,75.822,46.679
	 M73.122,41.87c-3.18,0-4.63,2.49-4.63,4.8c0,2.34,1.43,4.69,4.63,4.69c3.16,0,4.6-2.36,4.62-4.7c0.02-1.34-0.47-2.609-1.33-3.49
	C75.582,42.32,74.442,41.87,73.122,41.87"/>
<path fill="#FFFFFF" d="M92.062,51.16v-9.119h-1.95v5.18l-4.05-5.17h-1.55v9.109h1.94v-5.64l4.35,5.64"/>
<path fill="#FFFFFF" d="M106.672,51.16v-9.119h-1.95v5.18l-4.04-5.17h-1.56v9.109h1.95v-5.64l4.34,5.64"/>
<path fill="#FFFFFF" d="M113.582,51.16h6.83V49.22h-4.891v-1.68h4.721V45.69h-4.721v-1.72h4.891v-1.92h-6.83V51.16z"/>
<path fill="#FFFFFF" d="M133.723,48.65c-0.521,0.52-1.32,0.85-2.08,0.85c-2.091,0-2.841-1.459-2.851-2.83
	c-0.011-0.83,0.28-1.6,0.8-2.119c0.5-0.51,1.21-0.791,2.051-0.791c0.77,0,1.479,0.281,2,0.791l0.1,0.109l1.31-1.29l-0.11-0.11
	c-0.91-0.91-2.049-1.39-3.299-1.39c-1.4,0-2.591,0.46-3.44,1.33c-0.86,0.87-1.341,2.13-1.341,3.47c0.021,2.17,1.271,4.69,4.781,4.69
	c1.34,0,2.529-0.46,3.42-1.351l0.1-0.109l-1.33-1.359L133.723,48.65z"/>
<path fill="#FFFFFF" d="M140.822,43.87h2.76v7.29h1.949v-7.29h2.761V42.05h-7.47V43.87z"/>
<path fill="none" d="M0.002,57.02h224.18V0H0.002V57.02z"/>
<path fill="#FFFFFF" d="M154.732,51.16h1.939V42.05h-1.939V51.16z"/>
<path fill="#FFFFFF" d="M170.852,46.679c-0.02,1.381-0.74,2.861-2.699,2.861c-1.94,0-2.68-1.471-2.711-2.851
	c-0.02-0.88,0.271-1.7,0.801-2.25c0.48-0.5,1.119-0.75,1.91-0.75c0.779,0,1.42,0.25,1.899,0.729
	C170.572,44.97,170.872,45.791,170.852,46.679 M168.152,41.87c-3.18,0-4.631,2.49-4.631,4.8c0,2.34,1.431,4.69,4.631,4.69
	c3.16,0,4.6-2.36,4.619-4.7c0.021-1.34-0.47-2.609-1.319-3.49C170.622,42.32,169.482,41.87,168.152,41.87"/>
<path fill="#FFFFFF" d="M187.092,51.16v-9.119h-1.949v5.18l-4.051-5.17h-1.55v9.109h1.94v-5.64l4.35,5.64"/>
<path fill="#FFFFFF" d="M197.781,45.47c-1.079-0.131-1.809-0.34-1.809-0.95c0-0.63,0.639-1.021,1.659-1.021
	c0.91,0,1.67,0.471,1.94,0.91l0.07,0.12l1.56-0.81l-0.06-0.141c-0.58-1.199-1.82-1.83-3.561-1.83c-1.76,0.01-3.53,0.86-3.53,2.721
	c0,2.109,1.8,2.6,3.56,2.82c1.291,0.139,1.881,0.5,1.881,1.139c0,1.08-1.41,1.17-1.85,1.17c-1.121,0-1.99-0.489-2.311-1.299
	l-0.061-0.16L193.632,49l0.05,0.131c0.61,1.52,1.9,2.26,3.94,2.26c1.84,0,3.81-0.78,3.81-2.961
	C201.432,46.23,199.682,45.71,197.781,45.47"/>
<path fill="#FFFFFF" d="M65.782,37.36c-3.42,0-6.16-1.06-8.21-3.181c-2.05-2.119-3.08-4.909-3.08-8.359c0-3.41,1.04-6.23,3.11-8.46
	c2.08-2.23,4.59-3.35,7.54-3.35c2.74,0,4.83,0.88,6.26,2.64l0.7-2.57h3.02v8.86h-3.32c-0.67-2.07-1.49-3.62-2.46-4.63
	c-0.97-1.02-2.15-1.52-3.53-1.52c-3.57,0-5.36,2.9-5.36,8.69c0,5.8,2.03,8.699,6.09,8.699c1.61,0,2.91-0.56,3.89-1.68
	c0.98-1.109,2.4-2.97,2.97-4.11c1.6-3.16,3.79-5.25,4.95-6.07c0.69-0.5-2.8,5.6-2.8,5.6c-0.29,2.95-1.27,5.259-2.93,6.929
	C70.962,36.52,68.682,37.36,65.782,37.36"/>
<path fill="#FFFFFF" d="M83.722,34.849c1.07,0,1.84-0.459,2.31-1.399c0.47-0.94,0.7-2.47,0.7-4.58c0-2.1-0.26-3.62-0.78-4.56
	c-0.53-0.93-1.34-1.4-2.43-1.4c-1.05,0-1.81,0.47-2.29,1.4c-0.49,0.94-0.73,2.47-0.73,4.59c0,2.1,0.27,3.609,0.79,4.55
	C81.822,34.39,82.632,34.849,83.722,34.849 M83.622,37.15c-2.5,0-4.54-0.75-6.11-2.26c-1.57-1.51-2.36-3.49-2.36-5.92
	c0-2.42,0.81-4.41,2.43-5.99c1.61-1.58,3.64-2.37,6.07-2.37c2.48,0,4.51,0.76,6.08,2.27c1.57,1.51,2.36,3.48,2.36,5.92
	c0,2.43-0.8,4.43-2.41,6C88.072,36.37,86.052,37.15,83.622,37.15"/>
<path fill="#FFFFFF" d="M108.202,24.84c1.25-2.8,3.05-4.2,5.42-4.2c1.59,0,2.75,0.5,3.5,1.49c0.75,0.99,1.12,2.36,1.12,4.1v7.779
	h2.279v2.801h-8.839v-2.801h1.669V26.9c0-1.15-0.229-1.96-0.7-2.43c-0.33-0.34-0.8-0.51-1.41-0.51c-0.73,0-1.39,0.37-1.97,1.12
	c-0.58,0.74-0.87,1.65-0.87,2.74v6.189h1.61v2.801h-8.18v-2.801h1.68V26.9c0-1.12-0.25-1.94-0.74-2.43
	c-0.31-0.34-0.77-0.51-1.37-0.51c-0.74,0-1.4,0.37-1.98,1.12c-0.58,0.74-0.87,1.65-0.87,2.74v6.189h1.61v2.801h-8.81v-2.801h2.31
	V23.79h-2.31v-2.81h6.9v4.16c1.25-3,3.09-4.5,5.53-4.5C106.372,20.64,107.842,22.04,108.202,24.84"/>
<path fill="#FFFFFF" d="M135.492,24.84c1.24-2.8,3.05-4.2,5.42-4.2c1.58,0,2.75,0.5,3.5,1.49c0.75,0.99,1.119,2.36,1.119,4.1v7.779
	h2.281v2.801h-8.84v-2.801h1.67V26.9c0-1.15-0.23-1.96-0.701-2.43c-0.34-0.34-0.799-0.51-1.41-0.51c-0.729,0-1.389,0.37-1.969,1.12
	c-0.58,0.74-0.871,1.65-0.871,2.74v6.189h1.601v2.801h-8.17v-2.801h1.68V26.9c0-1.12-0.25-1.94-0.739-2.43
	c-0.311-0.34-0.771-0.51-1.371-0.51c-0.739,0-1.399,0.37-1.979,1.12c-0.58,0.74-0.87,1.65-0.87,2.74v6.189h1.61v2.801h-8.81v-2.801
	h2.31V23.79h-2.31v-2.81h6.899v4.16c1.25-3,3.09-4.5,5.53-4.5C133.652,20.64,135.132,22.04,135.492,24.84"/>
<path fill="#FFFFFF" d="M153.132,37.12c-1.58,0-2.76-0.5-3.53-1.489c-0.77-0.99-1.16-2.34-1.16-4.061v-7.78h-1.92v-2.8l6.541,0.03
	l0.27,9.87c0,1.109,0.24,1.91,0.71,2.41c0.351,0.359,0.851,0.539,1.5,0.539c0.78,0,1.47-0.369,2.06-1.119
	c0.59-0.74,0.891-1.67,0.891-2.771v-6.16h-2.311v-2.81h7.2v13.029h2.271v2.811h-6.86v-4.17
	C157.542,35.63,155.652,37.12,153.132,37.12"/>
<path fill="#FFFFFF" d="M165.322,36.81v-2.801h2.31V23.79h-2.31v-2.81h6.9v4.16c1.25-3,3.139-4.5,5.689-4.5
	c1.63,0,2.83,0.5,3.619,1.49c0.781,0.99,1.171,2.36,1.171,4.1v7.779h2.239v2.801h-8.939v-2.801h1.77V26.9
	c0-1.13-0.229-1.93-0.699-2.4c-0.4-0.36-0.91-0.54-1.541-0.54c-0.799,0-1.5,0.37-2.109,1.1c-0.6,0.73-0.9,1.65-0.9,2.76v6.189h1.74
	v2.801H165.322z"/>
<path fill="#FFFFFF" d="M188.563,18.65c-0.9,0-1.621-0.26-2.16-0.78c-0.551-0.52-0.82-1.2-0.82-2.03s0.279-1.53,0.83-2.1
	c0.561-0.56,1.279-0.84,2.15-0.84c0.89,0,1.619,0.27,2.17,0.81c0.56,0.54,0.84,1.22,0.84,2.03c0,0.83-0.28,1.53-0.85,2.08
	C190.152,18.37,189.432,18.65,188.563,18.65L188.563,18.65z M183.802,36.82v-2.811h2.55V23.79h-2.55v-2.81h7.44v13.029h2.539v2.811
	H183.802z"/>
<path fill="#FFFFFF" d="M195.992,17.43l4.789-0.58v4.14h5.021v2.8h-5.021v7.98c0,1.51,0.541,2.271,1.641,2.271
	c0.49,0,0.88-0.211,1.17-0.641s0.59-1.21,0.9-2.34l2.01,0.58c-0.38,1.939-1,3.34-1.87,4.209c-0.87,0.871-2.09,1.301-3.649,1.301
	c-3.391,0-5.09-1.801-5.09-5.41v-7.95h-2.781v-2.8h2.881V17.43z"/>
<path fill="#FFFFFF" d="M208.143,36.339c0.81,0,1.43,0.271,1.859,0.801c0.439,0.529,0.66,1.15,0.66,1.869
	c0,0.48-0.09,0.891-0.27,1.261c0.709-0.091,1.299-0.36,1.77-0.8c0.47-0.44,0.939-1.23,1.41-2.381l-6.301-13.299h-2.069v-2.81h9.81
	v2.81h-2.38l3.521,8.29l3.14-8.29h-1.97v-2.81h6.859v2.81h-1.91l-5.35,12.59c-0.9,2.119-1.87,3.699-2.92,4.75
	c-1.05,1.049-2.42,1.569-4.109,1.569c-1.391,0-2.451-0.319-3.201-0.96c-0.75-0.65-1.119-1.5-1.119-2.561
	c0-0.81,0.24-1.489,0.72-2.029S207.393,36.339,208.143,36.339"/>
<path fill="#FFFFFF" d="M27.032,49.339c-0.37,0-0.74-0.1-1.08-0.319c-1.02-0.66-10.09-6.65-12.22-12.04
	c-0.95-2.41-0.66-4.96,0.8-7.01c1.43-2.01,3.81-3.18,6.17-3.041c1.1,0.07,1.94,1.02,1.88,2.14c-0.07,1.109-1.01,1.971-2.11,1.9
	c-1.02-0.061-2.05,0.459-2.7,1.369c-0.37,0.53-0.92,1.641-0.33,3.141c1.41,3.561,8.18,8.529,10.67,10.14
	c0.93,0.601,1.2,1.851,0.61,2.79C28.332,49.009,27.692,49.339,27.032,49.339"/>
<path fill="#FFFFFF" d="M28.902,22.27c0.34,0.16,0.69,0.24,1.04,0.24c0.89,0,1.75-0.51,2.16-1.38c0.58-1.2,0.08-2.65-1.12-3.23
	c-4.97-2.42-12.97-14.13-14.27-16.61c-0.62-1.18-2.07-1.63-3.24-1.01c-1.17,0.63-1.62,2.1-1,3.28
	C13.752,6,22.442,19.12,28.902,22.27"/>
<path fill="#FFFFFF" d="M44.432,26.54c-4.47-3.39-11.88-3.29-18.37,4.58c-0.71,0.86-0.6,2.13,0.25,2.841
	c0.85,0.719,2.11,0.6,2.82-0.25c5.14-6.23,10.16-6.011,12.9-3.94c2.71,2.06,3.91,6.479,0.94,10.93
	c-4.87,7.32-12.98,10.69-16.17,11.78c-3.73-2.12-7.68-5-11.08-8.16c-1.7-1.939-3.2-4.16-4.17-6.6c-1.85-4.67,0.34-8.53,2.77-10.41
	c2.4-1.86,6.27-2.86,9.91-0.1c0.88,0.68,2.14,0.5,2.8-0.4c0.67-0.89,0.49-2.15-0.4-2.83c-1.79-1.36-3.79-2.15-5.84-2.41
	c-0.1-0.4-0.3-0.77-0.61-1.09c-1.86-1.86-6.79-6.8-9.21-11.58c-0.6-1.19-2.05-1.66-3.23-1.05c-1.18,0.61-1.65,2.07-1.04,3.26
	c2.07,4.1,5.42,7.98,8.47,11.15c-1.14,0.44-2.25,1.04-3.28,1.84c-0.01,0.01-0.01,0.01-0.02,0.02c0-0.01,0-0.01,0-0.01
	c-1.95-2.05-3.88-4.76-5.02-7.07c-0.59-1.2-2.04-1.68-3.22-1.09c-1.19,0.6-1.67,2.06-1.08,3.26c1.37,2.76,3.56,5.85,5.86,8.26
	c0.08,0.09,0.17,0.16,0.26,0.23c-0.94,1.55-1.53,3.28-1.73,5.08c-1.21-2.42-1.93-4.4-2.39-5.34c-0.6-1.19-2.04-1.68-3.22-1.08
	c-1.19,0.6-1.67,2.06-1.08,3.25c1.31,2.64,6.14,10.739,12.94,17.931c0.78,0.859,1.59,1.659,2.4,2.409
	c2.73,2.601,5.71,4.97,8.87,6.761c0.37,0.209,0.77,0.31,1.17,0.31s0.8-0.101,1.15-0.3c2.15-0.61,13.07-4.09,19.51-13.76
	C50.652,36.41,48.652,29.74,44.432,26.54"/>
</svg>
