<?xml version="1.0" encoding="utf-8"?>
<!-- Generator: Avocode 0.4.0 - http://avocode.com -->
<svg height="58" width="225" xmlns:xlink="http://www.w3.org/1999/xlink" xmlns="http://www.w3.org/2000/svg" viewBox="0 0 225 58">
    <path fill="#425aa1" fill-rule="evenodd" d="M 61.14 49.08 C 60.62 49.6 59.82 49.93 59.05 49.93 C 56.97 49.93 56.22 48.47 56.21 47.1 C 56.2 46.27 56.49 45.5 57 44.98 C 57.51 44.47 58.21 44.19 59.05 44.19 C 59.83 44.19 60.54 44.47 61.05 44.98 L 61.16 45.09 L 62.47 43.8 L 62.36 43.69 C 61.45 42.78 60.3 42.3 59.05 42.3 C 57.66 42.3 56.47 42.76 55.62 43.63 C 54.76 44.5 54.28 45.76 54.28 47.1 C 54.29 49.27 55.55 51.79 59.05 51.79 C 60.4 51.79 61.59 51.33 62.47 50.44 L 62.58 50.33 L 61.25 48.97 L 61.14 49.08 L 61.14 49.08 Z M 61.14 49.08" />
    <path fill="#425aa1" fill-rule="evenodd" d="M 75.82 47.11 C 75.8 48.49 75.08 49.97 73.12 49.97 C 71.17 49.97 70.44 48.5 70.41 47.12 C 70.39 46.24 70.68 45.42 71.21 44.87 C 71.69 44.37 72.33 44.12 73.12 44.12 C 73.9 44.12 74.54 44.37 75.01 44.85 C 75.54 45.4 75.84 46.22 75.82 47.11 M 73.12 42.3 C 69.94 42.3 68.49 44.79 68.49 47.1 C 68.49 49.44 69.92 51.79 73.12 51.79 C 76.28 51.79 77.72 49.43 77.74 47.09 C 77.76 45.75 77.27 44.48 76.41 43.6 C 75.58 42.75 74.44 42.3 73.12 42.3" />
    <path fill="#425aa1" fill-rule="evenodd" d="M 92.06 51.59 L 92.06 42.47 L 90.11 42.47 L 90.11 47.65 L 86.06 42.48 L 84.51 42.48 L 84.51 51.59 L 86.45 51.59 L 86.45 45.95 L 90.8 51.59" />
    <path fill="#425aa1" fill-rule="evenodd" d="M 106.67 51.59 L 106.67 42.47 L 104.72 42.47 L 104.72 47.65 L 100.68 42.48 L 99.12 42.48 L 99.12 51.59 L 101.07 51.59 L 101.07 45.95 L 105.41 51.59" />
    <path fill="#425aa1" fill-rule="evenodd" d="M 113.58 51.59 L 120.41 51.59 L 120.41 49.65 L 115.52 49.65 L 115.52 47.97 L 120.24 47.97 L 120.24 46.12 L 115.52 46.12 L 115.52 44.4 L 120.41 44.4 L 120.41 42.48 L 113.58 42.48 L 113.58 51.59 Z M 113.58 51.59" />
    <path fill="#425aa1" fill-rule="evenodd" d="M 133.72 49.08 C 133.2 49.6 132.4 49.93 131.64 49.93 C 129.55 49.93 128.8 48.47 128.79 47.1 C 128.78 46.27 129.07 45.5 129.59 44.98 C 130.09 44.47 130.8 44.19 131.64 44.19 C 132.41 44.19 133.12 44.47 133.64 44.98 L 133.74 45.09 L 135.05 43.8 L 134.94 43.69 C 134.03 42.78 132.89 42.3 131.64 42.3 C 130.24 42.3 129.05 42.76 128.2 43.63 C 127.34 44.5 126.86 45.76 126.86 47.1 C 126.88 49.27 128.13 51.79 131.64 51.79 C 132.98 51.79 134.17 51.33 135.06 50.44 L 135.16 50.33 L 133.83 48.97 L 133.72 49.08 Z M 133.72 49.08" />
    <path fill="#425aa1" fill-rule="evenodd" d="M 140.82 44.3 L 143.58 44.3 L 143.58 51.59 L 145.53 51.59 L 145.53 44.3 L 148.29 44.3 L 148.29 42.48 L 140.82 42.48 L 140.82 44.3 Z M 140.82 44.3" />
    <path fill="none" fill-rule="evenodd" d="M 0 57.45 L 224.18 57.45 L 224.18 0.43 L 0 0.43 L 0 57.45 Z M 0 57.45" />
    <path fill="#425aa1" fill-rule="evenodd" d="M 154.73 51.59 L 156.67 51.59 L 156.67 42.48 L 154.73 42.48 L 154.73 51.59 Z M 154.73 51.59" />
    <path fill="#425aa1" fill-rule="evenodd" d="M 170.85 47.11 C 170.83 48.49 170.11 49.97 168.15 49.97 C 166.21 49.97 165.47 48.5 165.44 47.12 C 165.42 46.24 165.71 45.42 166.24 44.87 C 166.72 44.37 167.36 44.12 168.15 44.12 C 168.93 44.12 169.57 44.37 170.05 44.85 C 170.57 45.4 170.87 46.22 170.85 47.11 M 168.15 42.3 C 164.97 42.3 163.52 44.79 163.52 47.1 C 163.52 49.44 164.95 51.79 168.15 51.79 C 171.31 51.79 172.75 49.43 172.77 47.09 C 172.79 45.75 172.3 44.48 171.45 43.6 C 170.62 42.75 169.48 42.3 168.15 42.3" />
    <path fill="#425aa1" fill-rule="evenodd" d="M 187.09 51.59 L 187.09 42.47 L 185.14 42.47 L 185.14 47.65 L 181.09 42.48 L 179.54 42.48 L 179.54 51.59 L 181.48 51.59 L 181.48 45.95 L 185.83 51.59" />
    <path fill="#425aa1" fill-rule="evenodd" d="M 197.78 45.9 C 196.7 45.77 195.97 45.56 195.97 44.95 C 195.97 44.32 196.61 43.93 197.63 43.93 C 198.54 43.93 199.3 44.4 199.57 44.84 L 199.64 44.96 L 201.2 44.15 L 201.14 44.01 C 200.56 42.81 199.32 42.18 197.58 42.18 C 195.82 42.19 194.05 43.04 194.05 44.9 C 194.05 47.01 195.85 47.5 197.61 47.72 C 198.9 47.86 199.49 48.22 199.49 48.86 C 199.49 49.94 198.08 50.03 197.64 50.03 C 196.52 50.03 195.65 49.54 195.33 48.73 L 195.27 48.57 L 193.63 49.43 L 193.68 49.56 C 194.29 51.08 195.58 51.82 197.62 51.82 C 199.46 51.82 201.43 51.04 201.43 48.86 C 201.43 46.66 199.68 46.14 197.78 45.9" />
    <path fill="#425aa1" fill-rule="evenodd" d="M 65.78 37.79 C 62.36 37.79 59.62 36.73 57.57 34.61 C 55.52 32.49 54.49 29.7 54.49 26.25 C 54.49 22.84 55.53 20.02 57.6 17.79 C 59.68 15.56 62.19 14.44 65.14 14.44 C 67.88 14.44 69.97 15.32 71.4 17.08 L 72.1 14.51 L 75.12 14.51 L 75.12 23.37 L 71.8 23.37 C 71.13 21.3 70.31 19.75 69.34 18.74 C 68.37 17.72 67.19 17.22 65.81 17.22 C 62.24 17.22 60.45 20.12 60.45 25.91 C 60.45 31.71 62.48 34.61 66.54 34.61 C 68.15 34.61 69.45 34.05 70.43 32.93 C 71.41 31.82 72.83 29.96 73.4 28.82 C 75 25.66 77.19 23.57 78.35 22.75 C 79.04 22.25 75.55 28.35 75.55 28.35 C 75.26 31.3 74.28 33.61 72.62 35.28 C 70.96 36.95 68.68 37.79 65.78 37.79" />
    <path fill="#425aa1" fill-rule="evenodd" d="M 83.72 35.28 C 84.79 35.28 85.56 34.82 86.03 33.88 C 86.5 32.94 86.73 31.41 86.73 29.3 C 86.73 27.2 86.47 25.68 85.95 24.74 C 85.42 23.81 84.61 23.34 83.52 23.34 C 82.47 23.34 81.71 23.81 81.23 24.74 C 80.74 25.68 80.5 27.21 80.5 29.33 C 80.5 31.43 80.77 32.94 81.29 33.88 C 81.82 34.82 82.63 35.28 83.72 35.28 M 83.62 37.58 C 81.12 37.58 79.08 36.83 77.51 35.32 C 75.94 33.81 75.15 31.83 75.15 29.4 C 75.15 26.98 75.96 24.99 77.58 23.41 C 79.19 21.83 81.22 21.04 83.65 21.04 C 86.13 21.04 88.16 21.8 89.73 23.31 C 91.3 24.82 92.09 26.79 92.09 29.23 C 92.09 31.66 91.29 33.66 89.68 35.23 C 88.07 36.8 86.05 37.58 83.62 37.58" />
    <path fill="#425aa1" fill-rule="evenodd" d="M 108.2 25.27 C 109.45 22.47 111.25 21.07 113.62 21.07 C 115.21 21.07 116.37 21.57 117.12 22.56 C 117.87 23.55 118.24 24.92 118.24 26.66 L 118.24 34.44 L 120.52 34.44 L 120.52 37.24 L 111.68 37.24 L 111.68 34.44 L 113.35 34.44 L 113.35 27.33 C 113.35 26.18 113.12 25.37 112.65 24.9 C 112.32 24.56 111.85 24.39 111.24 24.39 C 110.51 24.39 109.85 24.76 109.27 25.51 C 108.69 26.25 108.4 27.16 108.4 28.25 L 108.4 34.44 L 110.01 34.44 L 110.01 37.24 L 101.83 37.24 L 101.83 34.44 L 103.51 34.44 L 103.51 27.33 C 103.51 26.21 103.26 25.39 102.77 24.9 C 102.46 24.56 102 24.39 101.4 24.39 C 100.66 24.39 100 24.76 99.42 25.51 C 98.84 26.25 98.55 27.16 98.55 28.25 L 98.55 34.44 L 100.16 34.44 L 100.16 37.24 L 91.35 37.24 L 91.35 34.44 L 93.66 34.44 L 93.66 24.22 L 91.35 24.22 L 91.35 21.41 L 98.25 21.41 L 98.25 25.57 C 99.5 22.57 101.34 21.07 103.78 21.07 C 106.37 21.07 107.84 22.47 108.2 25.27" />
    <path fill="#425aa1" fill-rule="evenodd" d="M 135.49 25.27 C 136.73 22.47 138.54 21.07 140.91 21.07 C 142.49 21.07 143.66 21.57 144.41 22.56 C 145.16 23.55 145.53 24.92 145.53 26.66 L 145.53 34.44 L 147.81 34.44 L 147.81 37.24 L 138.97 37.24 L 138.97 34.44 L 140.64 34.44 L 140.64 27.33 C 140.64 26.18 140.41 25.37 139.94 24.9 C 139.6 24.56 139.14 24.39 138.53 24.39 C 137.8 24.39 137.14 24.76 136.56 25.51 C 135.98 26.25 135.69 27.16 135.69 28.25 L 135.69 34.44 L 137.29 34.44 L 137.29 37.24 L 129.12 37.24 L 129.12 34.44 L 130.8 34.44 L 130.8 27.33 C 130.8 26.21 130.55 25.39 130.06 24.9 C 129.75 24.56 129.29 24.39 128.69 24.39 C 127.95 24.39 127.29 24.76 126.71 25.51 C 126.13 26.25 125.84 27.16 125.84 28.25 L 125.84 34.44 L 127.45 34.44 L 127.45 37.24 L 118.64 37.24 L 118.64 34.44 L 120.95 34.44 L 120.95 24.22 L 118.64 24.22 L 118.64 21.41 L 125.54 21.41 L 125.54 25.57 C 126.79 22.57 128.63 21.07 131.07 21.07 C 133.65 21.07 135.13 22.47 135.49 25.27" />
    <path fill="#425aa1" fill-rule="evenodd" d="M 153.13 37.55 C 151.55 37.55 150.37 37.05 149.6 36.06 C 148.83 35.07 148.44 33.72 148.44 32 L 148.44 24.22 L 146.52 24.22 L 146.52 21.42 L 153.06 21.45 L 153.33 31.32 C 153.33 32.43 153.57 33.23 154.04 33.73 C 154.39 34.09 154.89 34.27 155.54 34.27 C 156.32 34.27 157.01 33.9 157.6 33.15 C 158.19 32.41 158.49 31.48 158.49 30.38 L 158.49 24.22 L 156.18 24.22 L 156.18 21.41 L 163.38 21.41 L 163.38 34.44 L 165.65 34.44 L 165.65 37.25 L 158.79 37.25 L 158.79 33.08 C 157.54 36.06 155.65 37.55 153.13 37.55" />
    <path fill="#425aa1" fill-rule="evenodd" d="M 165.32 37.24 L 165.32 34.44 L 167.63 34.44 L 167.63 24.22 L 165.32 24.22 L 165.32 21.41 L 172.22 21.41 L 172.22 25.57 C 173.47 22.57 175.36 21.07 177.91 21.07 C 179.54 21.07 180.74 21.57 181.53 22.56 C 182.31 23.55 182.7 24.92 182.7 26.66 L 182.7 34.44 L 184.94 34.44 L 184.94 37.24 L 176 37.24 L 176 34.44 L 177.77 34.44 L 177.77 27.33 C 177.77 26.2 177.54 25.4 177.07 24.93 C 176.67 24.57 176.16 24.39 175.53 24.39 C 174.73 24.39 174.03 24.76 173.42 25.49 C 172.82 26.22 172.52 27.14 172.52 28.25 L 172.52 34.44 L 174.26 34.44 L 174.26 37.24 L 165.32 37.24 Z M 165.32 37.24" />
    <path fill="#425aa1" fill-rule="evenodd" d="M 188.56 19.08 C 187.66 19.08 186.94 18.82 186.4 18.3 C 185.85 17.78 185.58 17.1 185.58 16.27 C 185.58 15.44 185.86 14.74 186.41 14.17 C 186.97 13.61 187.69 13.33 188.56 13.33 C 189.45 13.33 190.18 13.6 190.73 14.14 C 191.29 14.68 191.57 15.36 191.57 16.17 C 191.57 17 191.29 17.7 190.72 18.25 C 190.15 18.8 189.43 19.08 188.56 19.08 L 188.56 19.08 Z M 183.8 37.25 L 183.8 34.44 L 186.35 34.44 L 186.35 24.22 L 183.8 24.22 L 183.8 21.41 L 191.24 21.41 L 191.24 34.44 L 193.78 34.44 L 193.78 37.25 L 183.8 37.25 Z M 183.8 37.25" />
    <path fill="#425aa1" fill-rule="evenodd" d="M 195.99 17.86 L 200.78 17.28 L 200.78 21.42 L 205.8 21.42 L 205.8 24.22 L 200.78 24.22 L 200.78 32.2 C 200.78 33.71 201.32 34.47 202.42 34.47 C 202.91 34.47 203.3 34.26 203.59 33.83 C 203.88 33.4 204.18 32.62 204.49 31.49 L 206.5 32.07 C 206.12 34.01 205.5 35.41 204.63 36.28 C 203.76 37.15 202.54 37.58 200.98 37.58 C 197.59 37.58 195.89 35.78 195.89 32.17 L 195.89 24.22 L 193.11 24.22 L 193.11 21.42 L 195.99 21.42 L 195.99 17.86 Z M 195.99 17.86" />
    <path fill="#425aa1" fill-rule="evenodd" d="M 208.14 36.77 C 208.95 36.77 209.57 37.04 210 37.57 C 210.44 38.1 210.66 38.72 210.66 39.44 C 210.66 39.92 210.57 40.33 210.39 40.7 C 211.1 40.61 211.69 40.34 212.16 39.9 C 212.63 39.46 213.1 38.67 213.57 37.52 L 207.27 24.22 L 205.2 24.22 L 205.2 21.41 L 215.01 21.41 L 215.01 24.22 L 212.63 24.22 L 216.15 32.51 L 219.29 24.22 L 217.32 24.22 L 217.32 21.41 L 224.18 21.41 L 224.18 24.22 L 222.27 24.22 L 216.92 36.81 C 216.02 38.93 215.05 40.51 214 41.56 C 212.95 42.61 211.58 43.13 209.89 43.13 C 208.5 43.13 207.44 42.81 206.69 42.17 C 205.94 41.52 205.57 40.67 205.57 39.61 C 205.57 38.8 205.81 38.12 206.29 37.58 C 206.77 37.04 207.39 36.77 208.14 36.77" />
    <path fill="#dc6596" fill-rule="evenodd" d="M 27.03 49.77 C 26.66 49.77 26.29 49.67 25.95 49.45 C 24.93 48.79 15.86 42.8 13.73 37.41 C 12.78 35 13.07 32.45 14.53 30.4 C 15.96 28.39 18.34 27.22 20.7 27.36 C 21.8 27.43 22.64 28.38 22.58 29.5 C 22.51 30.61 21.57 31.47 20.47 31.4 C 19.45 31.34 18.42 31.86 17.77 32.77 C 17.4 33.3 16.85 34.41 17.44 35.91 C 18.85 39.47 25.62 44.44 28.11 46.05 C 29.04 46.65 29.31 47.9 28.72 48.84 C 28.33 49.44 27.69 49.77 27.03 49.77" />
    <path fill="#425aa1" fill-rule="evenodd" d="M 28.9 22.7 C 29.24 22.86 29.59 22.94 29.94 22.94 C 30.83 22.94 31.69 22.43 32.1 21.56 C 32.68 20.36 32.18 18.91 30.98 18.33 C 26.01 15.91 18.01 4.2 16.71 1.72 C 16.09 0.54 14.64 0.09 13.47 0.71 C 12.3 1.34 11.85 2.81 12.47 3.99 C 13.75 6.43 22.44 19.55 28.9 22.7" />
    <path fill="#425aa1" fill-rule="evenodd" d="M 44.43 26.97 C 39.96 23.58 32.55 23.68 26.06 31.55 C 25.35 32.41 25.46 33.68 26.31 34.39 C 27.16 35.11 28.42 34.99 29.13 34.14 C 34.27 27.91 39.29 28.13 42.03 30.2 C 44.74 32.26 45.94 36.68 42.97 41.13 C 38.1 48.45 29.99 51.82 26.8 52.91 C 23.07 50.79 19.12 47.91 15.72 44.75 C 14.02 42.81 12.52 40.59 11.55 38.15 C 9.7 33.48 11.89 29.62 14.32 27.74 C 16.72 25.88 20.59 24.88 24.23 27.64 C 25.11 28.32 26.37 28.14 27.03 27.24 C 27.7 26.35 27.52 25.09 26.63 24.41 C 24.84 23.05 22.84 22.26 20.79 22 C 20.69 21.6 20.49 21.23 20.18 20.91 C 18.32 19.05 13.39 14.11 10.97 9.33 C 10.37 8.14 8.92 7.67 7.74 8.28 C 6.56 8.89 6.09 10.35 6.7 11.54 C 8.77 15.64 12.12 19.52 15.17 22.69 C 14.03 23.13 12.92 23.73 11.89 24.53 C 11.88 24.54 11.88 24.54 11.87 24.55 C 11.87 24.54 11.87 24.54 11.87 24.54 C 9.92 22.49 7.99 19.78 6.85 17.47 C 6.26 16.27 4.81 15.79 3.63 16.38 C 2.44 16.98 1.96 18.44 2.55 19.64 C 3.92 22.4 6.11 25.49 8.41 27.9 C 8.49 27.99 8.58 28.06 8.67 28.13 C 7.73 29.68 7.14 31.41 6.94 33.21 C 5.73 30.79 5.01 28.81 4.55 27.87 C 3.95 26.68 2.51 26.19 1.33 26.79 C 0.14 27.39 -0.34 28.85 0.25 30.04 C 1.56 32.68 6.39 40.78 13.19 47.97 C 13.97 48.83 14.78 49.63 15.59 50.38 C 18.32 52.98 21.3 55.35 24.46 57.14 C 24.83 57.35 25.23 57.45 25.63 57.45 C 26.03 57.45 26.43 57.35 26.78 57.15 C 28.93 56.54 39.85 53.06 46.29 43.39 C 50.65 36.84 48.65 30.17 44.43 26.97" />
</svg>