<?xml version="1.0" encoding="utf-8"?>
<!-- Generator: Avocode 0.4.0 - http://avocode.com -->
<svg height="39" width="34" xmlns:xlink="http://www.w3.org/1999/xlink" xmlns="http://www.w3.org/2000/svg" viewBox="0 0 34 39">
    <path fill="#dc6596" fill-rule="evenodd" d="M 18.61 34 C 18.35 34 18.1 33.93 17.86 33.77 C 17.15 33.3 10.86 29.03 9.38 25.18 C 8.72 23.46 8.92 21.64 9.94 20.18 C 10.93 18.74 12.58 17.91 14.22 18.01 C 14.98 18.05 15.57 18.74 15.52 19.53 C 15.48 20.33 14.82 20.94 14.06 20.89 C 13.35 20.84 12.64 21.22 12.19 21.86 C 11.93 22.24 11.55 23.04 11.96 24.11 C 12.94 26.65 17.63 30.19 19.36 31.34 C 20.01 31.77 20.19 32.67 19.78 33.34 C 19.52 33.77 19.07 34 18.61 34" />
    <path fill="#425aa1" fill-rule="evenodd" d="M 19.61 15.83 C 19.84 15.95 20.09 16 20.33 16 C 20.95 16 21.55 15.64 21.83 15.02 C 22.23 14.17 21.89 13.14 21.06 12.72 C 17.6 11 12.04 2.68 11.14 0.92 C 10.71 0.08 9.7 -0.24 8.89 0.2 C 8.07 0.65 7.76 1.69 8.19 2.53 C 9.08 4.27 15.12 13.59 19.61 15.83" />
    <path fill="none" fill-rule="evenodd" d="M 0 5.12 L 0 38.98 L 33.75 38.98 L 33.75 5.12 L 0 5.12 L 0 5.12 Z M 0 5.12" />
    <path fill="#425aa1" fill-rule="evenodd" d="M 30.76 18.1 C 27.67 15.78 22.54 15.85 18.04 21.24 C 17.55 21.82 17.63 22.7 18.22 23.19 C 18.81 23.68 19.68 23.6 20.17 23.01 C 23.73 18.74 27.21 18.89 29.1 20.31 C 30.98 21.72 31.81 24.75 29.76 27.8 C 26.38 32.81 20.77 35.12 18.56 35.87 C 15.97 34.42 13.24 32.44 10.88 30.28 C 9.71 28.95 8.67 27.43 8 25.76 C 6.72 22.56 8.23 19.92 9.92 18.63 C 11.58 17.36 14.26 16.67 16.78 18.56 C 17.39 19.02 18.26 18.9 18.72 18.29 C 19.18 17.68 19.06 16.81 18.44 16.35 C 17.2 15.42 15.82 14.87 14.4 14.7 C 14.33 14.42 14.19 14.17 13.97 13.95 C 12.69 12.68 9.27 9.29 7.6 6.02 C 7.18 5.2 6.18 4.88 5.36 5.3 C 4.54 5.72 4.22 6.72 4.64 7.53 C 6.07 10.34 8.39 13 10.5 15.17 C 9.71 15.47 8.95 15.89 8.23 16.43 C 8.23 16.44 8.23 16.44 8.22 16.44 C 8.22 16.44 8.22 16.44 8.22 16.43 C 6.87 15.03 5.53 13.18 4.74 11.59 C 4.33 10.77 3.33 10.44 2.51 10.85 C 1.69 11.26 1.36 12.26 1.77 13.08 C 2.72 14.97 4.23 17.09 5.82 18.74 C 5.88 18.8 5.94 18.84 6.01 18.89 C 5.35 19.96 4.94 21.14 4.8 22.38 C 3.97 20.72 3.47 19.36 3.15 18.72 C 2.74 17.9 1.74 17.57 0.92 17.98 C 0.1 18.39 -0.23 19.39 0.18 20.21 C 1.08 22.01 4.43 27.56 9.14 32.48 C 9.68 33.07 10.24 33.62 10.8 34.14 C 12.69 35.92 14.75 37.54 16.94 38.77 C 17.19 38.91 17.47 38.98 17.75 38.98 C 18.03 38.98 18.3 38.91 18.54 38.78 C 20.04 38.36 27.6 35.97 32.06 29.35 C 35.07 24.86 33.69 20.29 30.76 18.1" />
</svg>