<svg id="Layer_1" data-name="Layer 1" xmlns="http://www.w3.org/2000/svg" viewBox="0 0 55.25 54"><defs><style>.cls-1{fill:#435aa2;}</style></defs><title>ccfil icons</title><path class="cls-1" d="M16.45,39.83A5.54,5.54,0,1,1,22,34.29,5.55,5.55,0,0,1,16.45,39.83Zm0-8.45a2.91,2.91,0,1,0,2.91,2.91A2.92,2.92,0,0,0,16.45,31.38Z"/><path class="cls-1" d="M41.82,39.83a5.54,5.54,0,1,1,5.54-5.54A5.55,5.55,0,0,1,41.82,39.83Zm0-8.45a2.91,2.91,0,1,0,2.91,2.91A2.92,2.92,0,0,0,41.82,31.38Z"/><path class="cls-1" d="M50.18,35.6H46V33h1.5V29.36c0-.37-.22-3.62-7.85-3.62H8V23.11H39.7c10,0,10.48,5.2,10.48,6.25Z"/><rect class="cls-1" x="20.68" y="32.98" width="16.91" height="2.63"/><path class="cls-1" d="M12.22,35.6h-7V28.44l.07-.2c0-.14,4.68-13.58,18.16-13.58h8a3.88,3.88,0,0,1,3.34,2.14l3.86,7-2.3,1.27-3.88-7a1.32,1.32,0,0,0-1-.73h-8c-10.79,0-15,10.1-15.6,11.6V33h4.33Z"/><path class="cls-1" d="M12,21.51a1.31,1.31,0,0,1-.6-.15L6,18.55a1.31,1.31,0,0,1,1.21-2.33L12.64,19a1.31,1.31,0,0,1-.6,2.48Z"/></svg>