<svg id="Layer_1" data-name="Layer 1" xmlns="http://www.w3.org/2000/svg" viewBox="0 0 55.25 54"><defs><style>.cls-1{fill:#435aa2;}</style></defs><title>ccfil icons</title><path class="cls-1" d="M40.55,47.31a1.83,1.83,0,0,1-1.12-.38,45.72,45.72,0,0,0-4-2.9,7.09,7.09,0,0,0-2.94-.14c-.6.07-1.48.21-2.42.35a39.81,39.81,0,0,1-5.2.62,11.3,11.3,0,0,1-7.67-3c-2.61-2.2-7.12-6.68-8-8.42a2.81,2.81,0,0,1,.66-3.34,3.11,3.11,0,0,1,3.77,0c2.17.12,3.88.49,6.82,3.19a1,1,0,0,1,.22.28l.86.1a11.1,11.1,0,0,0,3,.14c.4-.08.88-.22,1.43-.38a21.7,21.7,0,0,1,6.23-1c3.37,0,5.48,2.67,6,3.48L44,39.17a1.83,1.83,0,0,1,.7,2.46l-2.52,4.71a1.84,1.84,0,0,1-1.62,1Zm-6.8-5.49a7.53,7.53,0,0,1,2.31.32c.24.07.68.21,4.44,3.1l2.36-4.42-6-3.5-.13-.22s-1.74-2.75-4.5-2.75a19.7,19.7,0,0,0-5.68,1c-.59.17-1.1.32-1.58.41a12,12,0,0,1-3.61-.11,9.3,9.3,0,0,0-2.12-.14c-.45.12-1,.61-1,.85,0,0,.11.24.68.51,1.93.91,7.66,1.21,9.71,1.25a1,1,0,0,1,0,2h0c-.8,0-7.85-.18-10.52-1.44-1.7-.8-1.87-1.91-1.81-2.5a3.24,3.24,0,0,1,1.88-2.35A6.81,6.81,0,0,0,13.33,32h-.28l-.23-.15c-.67-.45-1.27-.55-1.6-.26a.84.84,0,0,0-.18,1c.58,1.2,4.48,5.26,7.45,7.76a9.3,9.3,0,0,0,6.39,2.51,39.69,39.69,0,0,0,4.89-.59c1-.15,1.86-.3,2.51-.37A13.6,13.6,0,0,1,33.76,41.82ZM35.47,44h0Z"/><path class="cls-1" d="M17.28,35.64a.74.74,0,0,1-.5-.19L13,32a.75.75,0,0,1,1-1.11l3.82,3.48a.75.75,0,0,1-.5,1.3Z"/><path class="cls-1" d="M34.34,27.52H19.59a2.71,2.71,0,0,1-2.71-2.71V9.31H34.34ZM19.15,11.58V24.81a.44.44,0,0,0,.44.44H32.06V11.58Z"/><path class="cls-1" d="M34.34,11.58H19.66A2.79,2.79,0,0,1,16.88,8.8V8.29A2.79,2.79,0,0,1,19.66,5.5H34.34ZM19.66,7.77a.52.52,0,0,0-.52.52V8.8a.52.52,0,0,0,.52.52h12.4V7.77Z"/><path class="cls-1" d="M30,19.8H21.59V13H30ZM23.3,18.1h5V14.72h-5Z"/></svg>