<svg id="Layer_1" data-name="Layer 1" xmlns="http://www.w3.org/2000/svg" viewBox="0 0 55.25 54"><defs><style>.cls-1{fill:#435aa2;}</style></defs><title>ccfil icons</title><path class="cls-1" d="M33.83,9a4.57,4.57,0,0,0-6.32,0l-.12.12L27.27,9a4.48,4.48,0,0,0-3.16-1.27h0A4.43,4.43,0,0,0,21,15.27l5.64,5.64a1.12,1.12,0,0,0,1.59,0l5.65-5.64A4.48,4.48,0,0,0,33.83,9Zm-.94,3.16a2.21,2.21,0,0,1-.65,1.57l-4.85,4.85-4.85-4.85a2.23,2.23,0,0,1,3.15-3.15l.91.91a1.15,1.15,0,0,0,1.59,0l.91-.91a2.23,2.23,0,0,1,3.8,1.57Z"/><path class="cls-1" d="M25,45.38l-4-.06a1.9,1.9,0,0,1-2.19-1.7,28.17,28.17,0,0,1,0-3c0-.62,0-1.45,0-1.76A6.49,6.49,0,0,0,17.17,37c-.41-.36-1-.85-1.71-1.38a36.1,36.1,0,0,1-3.63-3.11A10.45,10.45,0,0,1,9,25.45c-.15-3.18.06-8.87.72-10.56a2.66,2.66,0,0,1,2.73-1.7c1.05.11,2.29,1,2.62,3a1.14,1.14,0,1,1-2.25.36c-.12-.73-.4-1.08-.61-1.11a.38.38,0,0,0-.37.27c-.42,1.08-.72,6.2-.57,9.62A8.19,8.19,0,0,0,13.5,31a35.78,35.78,0,0,0,3.37,2.86c.69.54,1.34,1.06,1.8,1.45A8.33,8.33,0,0,1,20.88,38c.21.43.2,1,.14,2.7,0,.79-.05,1.67,0,2.32l3.26,0-.13-7.53,0-.16s.72-2.72-.88-4.45a17.63,17.63,0,0,0-4.08-3.14c-.46-.28-.89-.54-1.26-.8a11,11,0,0,1-2.19-2.52A9.15,9.15,0,0,0,14.62,23a1.59,1.59,0,0,0-.87-.19,1.7,1.7,0,0,0,.1.52c.57,1.81,3.86,5.76,5.08,7.13A1.14,1.14,0,1,1,17.23,32c-.48-.54-4.73-5.37-5.55-8-.56-1.76.16-2.63.63-3a3.33,3.33,0,0,1,3.54.07,7.9,7.9,0,0,1,1.77,2,10,10,0,0,0,1.67,2c.3.21.68.44,1.11.71A19.84,19.84,0,0,1,25,29.4c2.2,2.38,1.63,5.63,1.44,6.43l.13,7.39a1.89,1.89,0,0,1-1.4,2.12ZM18.83,39h0Z"/><path class="cls-1" d="M14,22.58a1.14,1.14,0,0,1-1.14-1.13l0-4.68a1.14,1.14,0,0,1,1.13-1.15h0a1.14,1.14,0,0,1,1.14,1.13l0,4.68A1.14,1.14,0,0,1,14,22.58Z"/><path class="cls-1" d="M29.89,45.38l-.15,0a1.89,1.89,0,0,1-1.4-2.12l.13-7.39c-.19-.8-.76-4.05,1.44-6.43a19.84,19.84,0,0,1,4.57-3.54c.44-.27.82-.5,1.12-.71a10,10,0,0,0,1.67-2,7.91,7.91,0,0,1,1.77-2,3.33,3.33,0,0,1,3.54-.07c.47.36,1.18,1.23.63,3-.82,2.59-5.07,7.42-5.55,8A1.14,1.14,0,1,1,36,30.51c1.22-1.37,4.51-5.33,5.08-7.13a1.72,1.72,0,0,0,.1-.52,1.58,1.58,0,0,0-.87.19,9.15,9.15,0,0,0-1.15,1.43A11,11,0,0,1,36.93,27c-.37.26-.8.53-1.26.8a17.62,17.62,0,0,0-4.08,3.14c-1.59,1.72-.89,4.42-.88,4.45l0,.16-.13,7.53,3.26,0c0-.65,0-1.53,0-2.32C33.8,39,33.8,38.46,34,38a8.33,8.33,0,0,1,2.22-2.72c.45-.39,1.1-.91,1.79-1.45A35.86,35.86,0,0,0,41.39,31a8.2,8.2,0,0,0,2.19-5.64c.16-3.42-.14-8.54-.57-9.62a.66.66,0,0,0-.49-.43c-.07,0-.29.24-.4.91a1.14,1.14,0,1,1-2.25-.36c.38-2.41,1.94-2.77,2.4-2.82a2.86,2.86,0,0,1,2.86,1.86c.66,1.68.87,7.38.72,10.56a10.45,10.45,0,0,1-2.8,7.08,36.19,36.19,0,0,1-3.63,3.11c-.67.53-1.3,1-1.71,1.38a6.49,6.49,0,0,0-1.61,1.88c0,.31,0,1.14,0,1.76a28.2,28.2,0,0,1,0,3,1.9,1.9,0,0,1-2.19,1.7Z"/><path class="cls-1" d="M40.85,22.24h0a1.14,1.14,0,0,1-1.13-1.15l0-4.68a1.14,1.14,0,0,1,1.14-1.13h0A1.14,1.14,0,0,1,42,16.44l0,4.68A1.14,1.14,0,0,1,40.85,22.24Z"/></svg>