<svg id="SvgjsSvg1008" xmlns="http://www.w3.org/2000/svg" version="1.1" xmlns:xlink="http://www.w3.org/1999/xlink" xmlns:svgjs="http://svgjs.com/svgjs" width="24" height="24"><defs id="SvgjsDefs1009"></defs><path id="SvgjsPath1010" d="M152.05 605.02C151.61 604.73 150.52 604.42 149.66000000000003 605.49C148.8 606.55 147.73000000000002 608.32 143.70000000000002 604.3C139.68 600.27 141.45000000000002 599.1999999999999 142.51000000000002 598.3399999999999C143.58 597.4799999999999 143.27 596.3899999999999 142.98000000000002 595.9499999999999C142.69000000000003 595.4999999999999 140.82000000000002 592.6099999999999 140.49 592.1299999999999C140.16 591.6499999999999 139.71 590.8699999999999 138.68 591.0199999999999C137.92000000000002 591.1299999999999 135 592.6799999999998 135 595.9699999999999C135 599.2699999999999 137.6 603.31 141.14 606.8599999999999C144.69 610.3999999999999 148.73 612.9999999999999 152.02999999999997 612.9999999999999C155.31999999999996 612.9999999999999 156.86999999999998 610.0799999999999 156.97999999999996 609.3199999999999C157.12999999999997 608.29 156.34999999999997 607.8399999999999 155.86999999999995 607.51C155.37999999999994 607.18 152.49999999999994 605.31 152.04999999999995 605.02Z " fill-opacity="0" fill="#ffffff" stroke-dasharray="0" stroke-linejoin="miter" stroke-linecap="butt" stroke-opacity="1" stroke="#e9619f" stroke-miterlimit="50" stroke-width="2" transform="matrix(1,0,0,1,-134,-590)"></path></svg>