<svg id="Layer_1" data-name="Layer 1" xmlns="http://www.w3.org/2000/svg" viewBox="0 0 55.25 54"><defs><style>.cls-1{fill:#435aa2;}</style></defs><title>ccfil icons</title><path class="cls-1" d="M34.47,45.85H21.05A2.92,2.92,0,0,1,18.14,43L16.27,28h23L37.39,43A2.92,2.92,0,0,1,34.47,45.85ZM18.72,30.11l1.58,12.82a.76.76,0,0,0,.76.76H34.47a.76.76,0,0,0,.76-.76V42.8l1.57-12.68Z"/><path class="cls-1" d="M39.16,30H16.35a1.69,1.69,0,0,1-1.69-1.69V26a1.69,1.69,0,0,1,1.69-1.69H39.16A1.69,1.69,0,0,1,40.85,26v2.29A1.69,1.69,0,0,1,39.16,30ZM16.82,27.81H38.69V26.46H16.82Z"/><path class="cls-1" d="M23.57,22.78a7.36,7.36,0,0,1-4.74-1.46C16,19,16.35,14.25,16.37,14.05l.06-.77.75-.19c.2-.05,4.79-1.21,7.59,1.12h0c2.8,2.33,2.48,7.06,2.47,7.26l-.06.77-.75.19A12.35,12.35,0,0,1,23.57,22.78ZM18.52,15c0,1.21.31,3.47,1.7,4.63s3.66,1,4.86.84c0-1.21-.31-3.47-1.7-4.63h0C22,14.72,19.72,14.85,18.52,15Z"/><path class="cls-1" d="M30.15,18.42a11.44,11.44,0,0,1-1.63-.11l-.76-.12-.13-.76c0-.2-.82-4.87,1.73-7.47s7.24-1.91,7.44-1.87l.76.12.13.76c0,.2.82,4.87-1.73,7.47h0C34.31,18.11,31.79,18.42,30.15,18.42Zm-.49-2.17c1.22.06,3.49,0,4.75-1.32s1.3-3.56,1.23-4.78c-1.21-.06-3.49,0-4.75,1.32S29.59,15,29.66,16.25Z"/><path class="cls-1" d="M28.42,25.82h0l1-.4Zm0,0c-.49-1.22-1.69-3.28-2.84-3.6l.59-2.08c2.54.72,4.09,4.46,4.26,4.89Z"/><path class="cls-1" d="M29.2,26.07C24.23,20.26,27.95,16,28,16l1.61,1.44c-.1.12-2.44,2.91,1.25,7.23Z"/></svg>