<svg id="Layer_1" data-name="Layer 1" xmlns="http://www.w3.org/2000/svg" viewBox="0 0 55.25 54"><defs><style>.cls-1{fill:#435aa2;}</style></defs><title>ccfil icons</title><path class="cls-1" d="M31.84,23.94a3.91,3.91,0,0,0-5.41,0l-.1.1-.1-.1a3.84,3.84,0,0,0-2.7-1.09h0a3.79,3.79,0,0,0-2.71,6.5l4.83,4.83a1,1,0,0,0,1.36,0l4.83-4.83A3.83,3.83,0,0,0,31.84,23.94ZM31,26.64A1.89,1.89,0,0,1,30.49,28l-4.15,4.15L22.18,28a1.91,1.91,0,0,1,2.69-2.69l.78.78a1,1,0,0,0,1.36,0l.78-.78A1.9,1.9,0,0,1,31,26.64Z"/><path class="cls-1" d="M36.29,45.27H16.17a1.75,1.75,0,0,1-1.75-1.75V24L12.8,25.4a1.75,1.75,0,0,1-2.75-.64L6.93,17.41a1.74,1.74,0,0,1,.59-2.11l7.9-5.64h5.13a1.75,1.75,0,0,1,1.71,1.41c.29,1.47,1.21,3.95,4.16,3.95,2.67,0,3.4-2,3.55-3.76a1.74,1.74,0,0,1,1.74-1.6h5.06l8.17,5.63a1.76,1.76,0,0,1,.62,2.11l-3.06,7.41a1.75,1.75,0,0,1-2.76.66L38,24V43.53A1.75,1.75,0,0,1,36.29,45.27ZM16.71,43h19V22.83a1.75,1.75,0,0,1,2.89-1.32l2,1.74,2.61-6.32-7.23-5H32.18c-.39,2.67-2.07,5.35-5.77,5.35-4.44,0-5.87-3.67-6.3-5.35h-4l-7,5,2.67,6.28,2-1.68a1.75,1.75,0,0,1,2.89,1.32Z"/></svg>