<svg id="Layer_1" data-name="Layer 1" xmlns="http://www.w3.org/2000/svg" viewBox="0 0 55.25 54"><defs><style>.cls-1{fill:#435aa2;}</style></defs><title>ccfil icons</title><path class="cls-1" d="M14.14,38.29V29.07A10.11,10.11,0,0,1,18.36,9.77H30.16a10.12,10.12,0,0,1,0,20.24h-7.7Zm4.22-26A7.56,7.56,0,0,0,15.84,27l.85.3v4.83l4.71-4.69h8.75a7.57,7.57,0,0,0,0-15.14Z"/><path class="cls-1" d="M41.46,45.41,34.3,38.26h-3a7.77,7.77,0,0,1-7.47-9.88l2.45.69a5.22,5.22,0,0,0,5,6.63h4l3.55,3.55V35.77l.93-.26a5.21,5.21,0,0,0-1.42-10.22H38V22.74h.43a7.76,7.76,0,0,1,3,14.9Z"/></svg>