<svg id="Layer_1" data-name="Layer 1" xmlns="http://www.w3.org/2000/svg" viewBox="0 0 55.25 54"><defs><style>.cls-1{fill:#435aa2;}</style></defs><title>ccfil icons</title><path class="cls-1" d="M32.25,16H14.61a1.18,1.18,0,1,1,0-2.35H32.25a1.18,1.18,0,1,1,0,2.35Z"/><path class="cls-1" d="M27.55,43.07H14.61a5.89,5.89,0,0,1-5.88-5.88V14.84a1.18,1.18,0,1,1,2.35,0V37.19a3.53,3.53,0,0,0,3.53,3.53H27.55a1.18,1.18,0,1,1,0,2.35Z"/><path class="cls-1" d="M33.43,35.39a1.18,1.18,0,0,1-1.18-1.18V20.72H14.61A5.88,5.88,0,0,1,14.61,9H33.43a1.18,1.18,0,0,1,0,2.35H14.61a3.53,3.53,0,0,0,0,7.06H33.43a1.18,1.18,0,0,1,1.18,1.18V34.22A1.18,1.18,0,0,1,33.43,35.39Z"/><path class="cls-1" d="M26.56,47a.88.88,0,0,1-.82-1.2l2.58-6.64a.89.89,0,0,1,.2-.31L40.72,26.71a.88.88,0,0,1,1.25,0l4.13,4.13a.88.88,0,0,1,0,1.25L33.89,44.27a.88.88,0,0,1-.31.2L26.87,47A.88.88,0,0,1,26.56,47Zm3.33-7-1.8,4.63,4.69-1.75L44.23,31.47l-2.89-2.88Z"/><rect class="cls-1" x="30.04" y="37.92" width="1.76" height="5.85" transform="translate(-19.83 33.84) rotate(-45.01)"/></svg>